<svg xmlns="http://www.w3.org/2000/svg" version="1.1" xmlns:xlink="http://www.w3.org/1999/xlink" xmlns:svgjs="http://svgjs.dev/svgjs" width="2000" height="1247" viewBox="0 0 2000 1247"><g transform="matrix(1,0,0,1,-1.2121212121211329,0.504858299595071)"><svg viewBox="0 0 396 247" data-background-color="#ffffff" preserveAspectRatio="xMidYMid meet" height="1247" width="2000" xmlns="http://www.w3.org/2000/svg" xmlns:xlink="http://www.w3.org/1999/xlink"><g id="tight-bounds" transform="matrix(1,0,0,1,0.2400000000000091,-0.09999999999999432)"><svg viewBox="0 0 395.52 247.2" height="247.2" width="395.52"><g><svg></svg></g><g><svg viewBox="0 0 395.52 247.2" height="247.2" width="395.52"><g transform="matrix(1,0,0,1,75.54432,78.75685185838338)"><svg viewBox="0 0 244.43135999999998 89.68629628323322" height="89.68629628323322" width="244.43135999999998"><g><svg viewBox="0 0 389.88358428564766 143.05535368379708" height="89.68629628323322" width="244.43135999999998"><g transform="matrix(1,0,0,1,145.45222428564765,19.771036580032742)"><svg viewBox="0 0 244.43136 103.5132805237316" height="103.5132805237316" width="244.43136"><g id="textblocktransform"><svg viewBox="0 0 244.43136 103.5132805237316" height="103.5132805237316" width="244.43136" id="textblock"><g><svg viewBox="0 0 244.43136 103.5132805237316" height="103.5132805237316" width="244.43136"><g transform="matrix(1,0,0,1,0,0)"><svg width="244.43136" viewBox="1.55 -35.75 122.19 51.75" height="103.5132805237316" data-palette-color="#e29578"><path d="M12-32.4L12-32.4Q11.1-32.4 10.45-32.1 9.8-31.8 9.8-31.35L9.8-31.35Q9.2-29.25 9.2-18.82 9.2-8.4 9.15-7.15L9.15-7.15Q10.1-5.65 12.1-5.65L12.1-5.65Q15.65-5.65 17.45-9.58 19.25-13.5 19.25-19.43 19.25-25.35 17.5-28.88 15.75-32.4 12-32.4ZM2.45 0.55L2.45 0.55Q1.7 0.45 1.7 0.1L1.7 0.1 1.85-0.5Q3.1-3.2 3.1-19.95L3.1-19.95Q3.1-27.95 2.68-29.95 2.25-31.95 2-32.5L2-32.5 1.75-33Q1.55-33.2 1.55-33.58 1.55-33.95 2.15-34.2L2.15-34.2Q6.05-35.75 12.4-35.75L12.4-35.75Q25.75-35.75 25.75-18.75L25.75-18.75Q25.75-12.1 23.4-6.6L23.4-6.6Q22.45-4.5 21.2-2.98 19.95-1.45 17.93-0.43 15.9 0.6 13.45 0.6L13.45 0.6Q12.95 0.55 12.18 0.45 11.4 0.35 9.88-0.3 8.35-0.95 7.8-2L7.8-2Q5.95 0.55 2.45 0.55ZM32.5-12.7L32.5-12.7 32.55-11.45Q32.55-11.15 32.95-11.15L32.95-11.15Q34.55-11.3 35.75-11.98 36.95-12.65 37.55-13.5L37.55-13.5Q38.75-15.35 38.85-16.7L38.85-16.7 38.9-17.3Q38.9-20 36.75-20L36.75-20Q35.15-20 34.15-18.6L34.15-18.6Q32.5-16.4 32.5-12.7ZM43.4-6.05L43.4-6.05Q43.4-4.15 42.62-2.73 41.85-1.3 40.87-0.63 39.9 0.05 38.6 0.45L38.6 0.45Q36.95 0.95 35.45 0.95L35.45 0.95Q31.25 0.95 29.25-2.2 27.25-5.35 27.25-10.23 27.25-15.1 29.72-18.9 32.2-22.7 37.15-22.7L37.15-22.7Q41.65-22.7 43.25-19.55L43.25-19.55Q43.9-18.35 43.9-17.28 43.9-16.2 43.8-15.58 43.7-14.95 43.1-13.7 42.5-12.45 41.5-11.45 40.5-10.45 38.35-9.55 36.2-8.65 33.3-8.35L33.3-8.35Q32.9-8.35 32.9-8L32.9-8Q32.9-7.55 33.22-6.68 33.55-5.8 33.95-5.2L33.95-5.2Q35.05-3.8 37.2-3.8L37.2-3.8Q39.35-3.8 40.85-5.2L40.85-5.2Q41.65-5.95 42.15-7.05L42.15-7.05Q42.35-7.45 42.67-7.45 43-7.45 43.2-6.9 43.4-6.35 43.4-6.05ZM61.34-6.85L61.34-6.85Q61.34-4.7 60.52-3.1 59.7-1.5 58.65-0.75 57.6 0 56.15 0.45L56.15 0.45Q54.25 1.05 52.7 1.05L52.7 1.05Q49.45 1.05 47.3-0.23 45.15-1.5 45.15-4.3L45.15-4.3Q45.15-5.95 46.05-7L46.05-7Q47.45-8.55 49.4-8.55L49.4-8.55Q50-8.55 50-8L50-8Q50-7.95 49.77-7.23 49.55-6.5 49.55-5.4 49.55-4.3 50.42-3.45 51.3-2.6 52.55-2.6 53.8-2.6 54.55-3.03 55.3-3.45 55.6-4.1L55.6-4.1Q56.05-5 56.05-5.8L56.05-5.8Q56.05-7.25 54.6-8.3 53.15-9.35 51.4-9.95 49.65-10.55 48.2-11.95 46.75-13.35 46.75-15.45L46.75-15.45Q46.75-19.05 49.02-20.85 51.3-22.65 55.2-22.65L55.2-22.65Q56.9-22.65 58.77-22.18 60.65-21.7 60.65-20.58 60.65-19.45 60.27-18.5 59.9-17.55 59.35-17.55L59.35-17.55Q59.05-17.55 58.95-17.78 58.85-18 58.6-18.3 58.35-18.6 57.4-19.07 56.45-19.55 55.77-19.55 55.1-19.55 54.87-19.53 54.65-19.5 54.1-19.38 53.55-19.25 53.1-19L53.1-19Q51.95-18.35 51.95-17.1L51.95-17.1Q51.95-16.3 52.3-15.93 52.65-15.55 52.85-15.35 53.05-15.15 53.55-14.88 54.05-14.6 54.25-14.5 54.45-14.4 55.15-14.08 55.85-13.75 56.05-13.65L56.05-13.65Q61.34-11.15 61.34-6.85ZM62.59-19.5L62.59-19.5 62.74-21.5Q62.79-21.95 63.44-21.95L63.44-21.95 65.19-21.95 64.99-25.95 64.99-26.15Q64.99-27.3 66.74-28.35 68.49-29.4 69.94-29.4L69.94-29.4Q70.39-29.4 70.39-29L70.39-29 70.39-28.95Q70.19-27.6 69.99-22L69.99-22Q72.19-22 72.79-22.1 73.39-22.2 73.44-22.2L73.44-22.2Q73.79-22.2 73.79-21.6 73.79-21 73.24-20.08 72.69-19.15 72.04-19.1L72.04-19.1 69.94-19.1Q69.89-17.4 69.89-13.38 69.89-9.35 69.97-6.75 70.04-4.15 70.14-2.83 70.24-1.5 70.37-0.7 70.49 0.1 70.57 0.45 70.64 0.8 70.64 0.9L70.64 0.9Q70.64 1.4 69.99 1.45L69.99 1.45Q68.04 1.45 66.12 0.9 64.19 0.35 64.19-1L64.19-1Q65.24-9.4 65.24-19.05L65.24-19.05Q63.89-19.05 63.19-18.95L63.19-18.95 63.14-18.95Q62.69-18.95 62.59-19.5ZM79.69-26.75L79.69-26.75 78.49-26.8Q77.14-26.8 76.74-26.15L76.74-26.15Q76.64-26 76.49-26L76.49-26Q75.84-26 75.84-28.23 75.84-30.45 76.52-31.05 77.19-31.65 78.87-31.65 80.54-31.65 81.14-31.08 81.74-30.5 81.74-29.15 81.74-27.8 81.29-27.28 80.84-26.75 79.69-26.75ZM75.69-1.5L75.69-1.5 76.24-13.15Q76.24-17.3 75.29-18.8L75.29-18.8Q74.99-19.3 74.59-19.55L74.59-19.55Q74.29-19.65 74.29-19.95L74.29-19.95Q74.29-20.85 76.84-21.7 79.39-22.55 80.57-22.55 81.74-22.55 81.79-21.95L81.79-21.95Q81.79-20.95 81.52-16.28 81.24-11.6 81.24-6.45 81.24-1.3 81.84-0.05L81.84-0.05Q81.99 0.2 81.99 0.45L81.99 0.45Q81.99 1.1 80.09 1.1 78.19 1.1 76.19 0.1L76.19 0.1Q75.69-0.15 75.69-1.5ZM88.34-20.18Q89.44-21.3 91.24-22.08 93.04-22.85 94.69-22.85 96.34-22.85 98.04-22.1L98.04-22.1Q98.24-22.1 98.34-22.2L98.34-22.2Q99.64-23.5 102.14-23.5L102.14-23.5Q102.74-23.5 102.74-22.95L102.74-22.95Q102.74-22.9 102.64-22.5 102.54-22.1 102.39-21.33 102.24-20.55 102.14-19.45L102.14-19.45Q101.79-16.6 101.76-13.15 101.74-9.7 101.74-6.25L101.74-6.25 101.89 4.25Q101.89 9.3 99.29 12.65L99.29 12.65Q98.24 14 96.11 15 93.99 16 91.14 16L91.14 16Q90.49 15.6 90.49 15.2 90.49 14.8 91.04 14.55L91.04 14.55Q94.19 13.1 95.54 7.68 96.89 2.25 96.89-8.8L96.89-8.8 96.79-15.8 96.64-19.2Q96.64-19.65 95.24-19.85L95.24-19.85Q93.44-19.85 92.21-18.68 90.99-17.5 90.54-15.6L90.54-15.6Q89.74-12.55 89.74-10.33 89.74-8.1 90.46-6.4 91.19-4.7 92.99-4.7L92.99-4.7Q93.49-4.7 93.91-4.9 94.34-5.1 94.49-5.1L94.49-5.1Q94.99-5.1 94.99-4.1 94.99-3.1 94.84-2.48 94.69-1.85 94.24-1.1L94.24-1.1Q93.24 0.55 90.34 0.55L90.34 0.55Q87.44 0.55 86.19-1.55L86.19-1.55Q84.89-3.7 84.69-5.4L84.69-5.4Q84.39-7.95 84.39-8.75 84.39-9.55 84.41-10.03 84.44-10.5 84.66-11.93 84.89-13.35 85.26-14.63 85.64-15.9 86.44-17.48 87.24-19.05 88.34-20.18ZM109.89-18.85L109.89-18.85Q108.59-18.8 108.01-18.78 107.44-18.75 107.44-19.05 107.44-19.35 107.74-19.65L107.74-19.65Q110.94-22.6 118.54-22.6L118.54-22.6Q121.14-22.6 122.64-22.15L122.64-22.15 123.14-22Q123.74-21.75 123.74-21.45L123.74-21.45Q123.74-21.2 123.39-21.05L123.39-21.05Q122.04-20.65 120.79-19.78 119.54-18.9 119.54-18.55L119.54-18.55 119.84-18.2Q121.44-17.3 122.31-15.35 123.19-13.4 123.29-11.9L123.29-11.9 123.39-10.35Q123.39-5.4 120.64-2.2 117.89 1 113.14 1L113.14 1Q110.74 1 108.99 0.15 107.24-0.7 106.41-1.78 105.59-2.85 105.09-4.2L105.09-4.2Q104.49-6.05 104.49-8.03 104.49-10 105.16-12 105.84-14 106.71-14.95 107.59-15.9 108.69-16.5L108.69-16.5Q110.09-17.25 110.94-17.25 111.79-17.25 111.79-16.9L111.79-16.9 111.49-16.4Q110.39-15.1 109.91-13 109.44-10.9 109.44-9.28 109.44-7.65 109.84-6.05 110.24-4.45 110.74-3.68 111.24-2.9 111.89-2.5L111.89-2.5Q112.84-1.9 113.89-1.9 114.94-1.9 115.94-2.73 116.94-3.55 117.39-4.9L117.39-4.9Q118.29-7.4 118.29-10.05L118.29-10.05Q118.29-14.25 116.16-16.55 114.04-18.85 109.89-18.85Z" opacity="1" transform="matrix(1,0,0,1,0,0)" fill="#ffffff" class="wordmark-text-0" data-fill-palette-color="primary" id="text-0"></path></svg></g></svg></g></svg></g></svg></g><g><svg viewBox="0 0 121.0152230727272 143.05535368379708" height="143.05535368379708" width="121.0152230727272"><g><svg xmlns="http://www.w3.org/2000/svg" xmlns:xlink="http://www.w3.org/1999/xlink" version="1.1" x="0" y="0" viewBox="8.916 2.3072639843766973 72.168 85.3117360156233" enable-background="new 0 0 90 90" xml:space="preserve" height="143.05535368379708" width="121.0152230727272" class="icon-icon-0" data-fill-palette-color="accent" id="icon-0"><path d="M23.289 19.074A2.72 2.72 0 0 1 20.57 16.355V5.1A2.719 2.719 0 1 1 26.006 5.1V16.356A2.72 2.72 0 0 1 23.289 19.074" fill="#ffffff" data-fill-palette-color="accent"></path><path d="M56.504 19.074A2.72 2.72 0 0 1 53.787 16.355V5.1A2.718 2.718 0 1 1 59.223 5.1V16.356A2.72 2.72 0 0 1 56.504 19.074" fill="#ffffff" data-fill-palette-color="accent"></path><path d="M29.02 71.936H25.858V57.277H28.194C28.325 56.629 28.483 55.996 28.655 55.369H25.858V41.182H37.628A29 29 0 0 1 40.838 38.776V25.546H53.915V34.275A27 27 0 0 1 55.818 34.17V25.547H67.381V36.277A29 29 0 0 1 70.871 37.984V16.744C70.871 13.213 67.998 10.338 64.467 10.338H61.744V16.356A5.241 5.241 0 1 1 51.263 16.356V10.338H28.529V16.356A5.242 5.242 0 0 1 18.047 16.356V10.338H15.322A6.414 6.414 0 0 0 8.916 16.744V69.023A6.414 6.414 0 0 0 15.322 75.431H30.406A29 29 0 0 1 29.02 71.936M25.857 25.545H38.933V39.275H25.857zM23.951 71.936H15.322A2.916 2.916 0 0 1 12.41 69.024V57.277H23.951zM23.951 55.369H12.41V41.182H23.951zM23.951 39.275H12.41V25.545H23.951z" fill="#ffffff" data-fill-palette-color="accent"></path><path d="M56.504 87.619C42.951 87.619 31.926 76.592 31.926 63.037 31.926 49.484 42.951 38.461 56.504 38.461 70.059 38.461 81.084 49.484 81.084 63.037 81.084 76.592 70.059 87.619 56.504 87.619M56.504 44.121C46.072 44.121 37.586 52.605 37.586 63.037 37.586 73.471 46.072 81.957 56.504 81.957 66.938 81.957 75.422 73.471 75.422 63.037 75.422 52.605 66.938 44.121 56.504 44.121" fill="#ffffff" data-fill-palette-color="accent"></path><path d="M71.121 56.975C69.008 55.584 64.588 56.565 59.683 58.457L51.068 50.043 48.166 50.145 55.094 60.413C52.242 61.726 49.42 63.184 46.948 64.532L43.373 61.831 41.888 62 45.582 66.652 45.896 72.582 47.123 71.728 48.012 67.335C50.756 66.706 53.838 65.925 56.842 65.022L58.455 77.303 60.695 75.449 61.572 63.439C66.5 61.611 70.461 59.416 71.121 56.975" fill="#ffffff" data-fill-palette-color="accent"></path></svg></g></svg></g></svg></g></svg></g><g><path d="M0 123.6c0-68.262 55.338-123.6 123.6-123.6 49.49 0 92.186 29.086 111.927 71.097l-3.243 0c-19.526-40.345-60.856-68.17-108.684-68.171-66.646 0-120.674 54.028-120.674 120.674 0 66.646 54.028 120.674 120.674 120.674 47.828 0 89.158-27.825 108.684-68.171l3.243 0c-19.741 42.01-62.437 71.097-111.927 71.097-68.262 0-123.6-55.338-123.6-123.6z" fill="#ffffff" stroke="transparent" data-fill-palette-color="tertiary"></path></g></svg></g><defs></defs></svg><rect width="395.52" height="247.2" fill="none" stroke="none" visibility="hidden"></rect></g></svg></g></svg>