<svg xmlns="http://www.w3.org/2000/svg" version="1.1" xmlns:xlink="http://www.w3.org/1999/xlink" xmlns:svgjs="http://svgjs.dev/svgjs" width="2000" height="1822" viewBox="0 0 2000 1822"><g transform="matrix(1,0,0,1,1.23685974715886,0.7376518218623005)"><svg viewBox="0 0 271 247" data-background-color="#ffffff" preserveAspectRatio="xMidYMid meet" height="1822" width="2000" xmlns="http://www.w3.org/2000/svg" xmlns:xlink="http://www.w3.org/1999/xlink"><g id="tight-bounds" transform="matrix(1,0,0,1,-0.16759449574001906,-0.09999999999999432)"><svg viewBox="0 0 271.3351891538767 247.2" height="247.2" width="271.3351891538767"><g><svg viewBox="0 0 395.52 360.33860666908294" height="247.2" width="271.3351891538767"><g transform="matrix(1,0,0,1,0,242.34417245218773)"><svg viewBox="0 0 395.52 117.9944342168952" height="117.9944342168952" width="395.52"><g id="textblocktransform"><svg viewBox="0 0 395.52 117.9944342168952" height="117.9944342168952" width="395.52" id="textblock"><g><svg viewBox="0 0 395.52 117.9944342168952" height="117.9944342168952" width="395.52"><g transform="matrix(1,0,0,1,0,0)"><svg width="395.52" viewBox="2.0181819052480003 -32.3 145.471818094752 43.4" height="117.9944342168952" data-palette-color="#ffffff"><path d="M15.05-32.15L15.05-32.15Q20.4-32.15 24.25-30.08 28.1-28 30.15-24.43 32.2-20.85 32.2-16.3L32.2-16.3Q32.2-13.2 31.35-10.25 30.5-7.3 28.48-4.95 26.45-2.6 23-1.23 19.55 0.15 14.4 0.15L14.4 0.15 2.2 0.15Q2-0.05 2.02-0.55 2.05-1.05 2.2-1.25L2.2-1.25Q2.5-1.25 3.3-1.33 4.1-1.4 4.83-1.6 5.55-1.8 5.6-2.05L5.6-2.05Q5.8-2.65 5.83-3.6 5.85-4.55 5.85-5.65L5.85-5.65 5.85-26.5Q5.85-27.6 5.83-28.58 5.8-29.55 5.6-30.15L5.6-30.15Q5.55-30.45 4.83-30.6 4.1-30.75 3.3-30.83 2.5-30.9 2.2-30.9L2.2-30.9Q2.05-31.1 2.02-31.6 2-32.1 2.2-32.3L2.2-32.3Q3.7-32.25 5.15-32.18 6.6-32.1 8-32.1L8-32.1Q9.45-32.1 11.45-32.13 13.45-32.15 15.05-32.15ZM10.15-26.4L10.15-26.4 10.15-5.6Q10.15-5.25 10.15-4.48 10.15-3.7 10.23-2.98 10.3-2.25 10.4-2.1L10.4-2.1Q10.7-1.7 11.88-1.55 13.05-1.4 14.4-1.4L14.4-1.4Q17.9-1.4 20.83-2.9 23.75-4.4 25.55-7.48 27.35-10.55 27.35-15.3L27.35-15.3Q27.35-19.45 26.23-22.35 25.1-25.25 23.18-27.08 21.25-28.9 18.82-29.73 16.4-30.55 13.75-30.55L13.75-30.55Q13.45-30.55 12.65-30.53 11.85-30.5 11.15-30.4 10.45-30.3 10.35-30.05L10.35-30.05Q10.2-29.55 10.18-28.73 10.15-27.9 10.15-27L10.15-27Q10.15-26.85 10.15-26.7 10.15-26.55 10.15-26.4ZM40.05-12.1L40.05-12.1Q40-9 41.1-6.9 42.2-4.8 44.05-3.78 45.9-2.75 48.05-2.75L48.05-2.75Q49.4-2.75 50.5-3.23 51.6-3.7 52.35-4.33 53.1-4.95 53.4-5.3L53.4-5.3Q53.45-5.3 53.62-5.13 53.8-4.95 53.8-4.65L53.8-4.65Q53.8-4.25 53.5-3.75L53.5-3.75Q53.05-3.05 52.1-2.08 51.15-1.1 49.7-0.35 48.25 0.4 46.35 0.4L46.35 0.4Q43.5 0.4 41.3-0.95 39.1-2.3 37.85-4.6 36.6-6.9 36.6-9.75L36.6-9.75Q36.6-12.2 37.47-14.33 38.35-16.45 39.77-18.03 41.2-19.6 42.9-20.5 44.6-21.4 46.2-21.4L46.2-21.4Q48.4-21.4 49.82-20.65 51.25-19.9 52.07-18.8 52.9-17.7 53.22-16.6 53.55-15.5 53.55-14.75L53.55-14.75Q53.55-13.7 53.3-13.1 53.05-12.5 52.35-12.45L52.35-12.45Q51.9-12.4 50.57-12.38 49.25-12.35 47.55-12.3 45.85-12.25 44.2-12.2 42.55-12.15 41.4-12.13 40.25-12.1 40.05-12.1ZM40.3-13.9L40.3-13.9 48.25-13.9Q48.7-13.9 49.02-14.15 49.35-14.4 49.4-15.05L49.4-15.05Q49.45-15.65 49.05-16.75 48.65-17.85 47.77-18.75 46.9-19.65 45.4-19.65L45.4-19.65Q43.85-19.65 42.85-18.78 41.85-17.9 41.27-16.78 40.7-15.65 40.47-14.78 40.25-13.9 40.3-13.9ZM65.09-21.35L65.09-21.35Q66.55-21.35 67.52-21.13 68.5-20.9 70.09-20.7L70.09-20.7Q70.34-19.6 70.5-18.13 70.65-16.65 70.7-15.35L70.7-15.35Q70.7-15.1 70.2-15.1L70.2-15.1Q70-15.1 69.77-15.15 69.55-15.2 69.34-15.35L69.34-15.35Q69.09-16.25 68.52-17.3 67.95-18.35 67.12-19.07 66.3-19.8 65.25-19.8L65.25-19.8Q63.5-19.8 62.65-18.93 61.8-18.05 61.8-16.75L61.8-16.75Q61.8-15.5 62.4-14.73 63-13.95 63.97-13.38 64.95-12.8 66.05-12.15L66.05-12.15Q67.15-11.5 68.45-10.7 69.75-9.9 70.7-8.83 71.65-7.75 71.65-6.2L71.65-6.2Q71.65-4.25 70.59-2.73 69.55-1.2 67.84-0.33 66.15 0.55 64.15 0.55L64.15 0.55Q62.45 0.55 61.25 0.23 60.05-0.1 58.45-0.4L58.45-0.4Q58.25-0.95 58.05-1.9 57.85-2.85 57.72-3.85 57.6-4.85 57.6-5.45L57.6-5.45Q58-5.75 58.5-5.75L58.5-5.75Q58.75-5.75 58.9-5.65L58.9-5.65Q59.2-4.65 59.95-3.58 60.7-2.5 61.8-1.78 62.9-1.05 64.2-1.05L64.2-1.05Q65.7-1.05 66.7-1.95 67.7-2.85 67.7-4.55L67.7-4.55Q67.7-6.05 66.8-6.98 65.9-7.9 64.55-8.63 63.2-9.35 61.75-10.15L61.75-10.15Q60.3-11 59.17-12.23 58.05-13.45 58.05-15.4L58.05-15.4Q58.05-17.2 59.07-18.55 60.1-19.9 61.7-20.63 63.3-21.35 65.09-21.35ZM81.39-27.5L81.39-21.1 87.69-21.1Q87.94-21.1 87.94-20.55L87.94-20.55Q87.94-19.8 87.24-19.1L87.24-19.1 81.39-19.1 81.39-6.3Q81.39-2.3 84.64-2.3L84.64-2.3Q85.74-2.3 86.64-2.75 87.54-3.2 87.79-3.4L87.79-3.4Q87.94-3.35 87.94-3.1L87.94-3.1Q87.94-2.55 87.74-2.35L87.74-2.35Q87.39-1.95 86.67-1.3 85.94-0.65 84.94-0.15 83.94 0.35 82.74 0.35L82.74 0.35Q81.49 0.35 80.32-0.1 79.14-0.55 78.39-1.7 77.64-2.85 77.64-4.95L77.64-4.95 77.64-19.1 74.79-19.1Q74.69-19.1 74.64-19.28 74.59-19.45 74.59-19.55L74.59-19.55Q74.59-19.65 74.89-20.03 75.19-20.4 75.52-20.75 75.84-21.1 75.84-21.1L75.84-21.1 77.64-21.1 77.64-24.15Q78.14-24.7 78.82-25.43 79.49-26.15 80.04-26.78 80.59-27.4 80.64-27.45L80.64-27.45Q80.84-27.65 81.12-27.65 81.39-27.65 81.39-27.5L81.39-27.5ZM92.89-28.95L92.89-28.95Q92.89-29.95 93.62-30.68 94.34-31.4 95.34-31.4L95.34-31.4Q96.34-31.4 97.07-30.68 97.79-29.95 97.79-28.95L97.79-28.95Q97.79-27.95 97.07-27.23 96.34-26.5 95.34-26.5L95.34-26.5Q94.34-26.5 93.62-27.23 92.89-27.95 92.89-28.95ZM97.59-17.5L97.59-5.65Q97.59-4.55 97.62-3.6 97.64-2.65 97.84-2.05L97.84-2.05Q97.94-1.8 98.57-1.6 99.19-1.4 99.89-1.33 100.59-1.25 100.89-1.25L100.89-1.25Q101.04-1.05 101.07-0.55 101.09-0.05 100.89 0.15L100.89 0.15Q99.39 0.05 98.27-0.03 97.14-0.1 95.69-0.1L95.69-0.1Q94.29-0.1 93.14-0.03 91.99 0.05 90.49 0.15L90.49 0.15Q90.29-0.05 90.32-0.55 90.34-1.05 90.49-1.25L90.49-1.25Q90.79-1.25 91.52-1.33 92.24-1.4 92.89-1.6 93.54-1.8 93.59-2.05L93.59-2.05Q93.79-2.65 93.82-3.6 93.84-4.55 93.84-5.65L93.84-5.65 93.84-14.75Q93.84-15.25 93.82-16.05 93.79-16.85 93.59-17.3L93.59-17.3Q93.44-17.75 92.74-17.93 92.04-18.1 91.34-18.13 90.64-18.15 90.44-18.15L90.44-18.15Q90.39-18.25 90.34-18.75 90.29-19.25 90.44-19.45L90.44-19.45Q92.34-19.7 94.14-20.2 95.94-20.7 97.39-21.5L97.39-21.5Q97.59-21.5 97.77-21.2 97.94-20.9 97.94-20.7L97.94-20.7Q97.94-20.55 97.84-19.85 97.74-19.15 97.67-18.45 97.59-17.75 97.59-17.5L97.59-17.5ZM110.84-3.25L116.59-3.25Q118.54-3.25 120.26-2.55 121.99-1.85 123.06-0.7 124.14 0.45 124.14 1.85L124.14 1.85Q124.14 3.35 123.11 4.95 122.09 6.55 120.34 7.95 118.59 9.35 116.29 10.23 113.99 11.1 111.44 11.1L111.44 11.1Q109.49 11.1 107.54 10.45 105.59 9.8 104.29 8.47 102.99 7.15 102.99 5.15L102.99 5.15Q102.99 4.05 103.94 3.05 104.89 2.05 106.14 1.25 107.39 0.45 108.19 0.05L108.19 0.05Q107.34-0.25 106.41-0.85 105.49-1.45 104.84-2.38 104.19-3.3 104.19-4.5L104.19-4.5Q104.64-5 105.46-5.68 106.29-6.35 107.11-6.95 107.94-7.55 108.39-7.8L108.39-7.8Q106.59-8.8 105.46-10.53 104.34-12.25 104.34-14.05L104.34-14.05Q104.34-16 105.41-17.68 106.49-19.35 108.36-20.4 110.24-21.45 112.59-21.45L112.59-21.45Q114.19-21.45 115.29-21.03 116.39-20.6 117.04-20.35L117.04-20.35Q117.74-20.1 117.76-20.1 117.79-20.1 118.14-20L118.14-20 123.39-20.75Q123.84-20.6 123.84-20.25L123.84-20.25Q123.84-19.95 123.49-19.23 123.14-18.5 122.74-18.25L122.74-18.25Q122.14-18.3 121.39-18.32 120.64-18.35 120.09-18.4 119.54-18.45 119.54-18.45L119.54-18.45Q119.34-18.45 119.34-18.3L119.34-18.3Q119.54-18.1 120.11-16.82 120.69-15.55 120.69-13.85L120.69-13.85Q120.69-12.15 119.61-10.5 118.54-8.85 116.66-7.78 114.79-6.7 112.44-6.7L112.44-6.7Q111.79-6.7 110.94-6.85 110.09-7 109.69-7.15L109.69-7.15Q109.04-6.8 108.46-6.2 107.89-5.6 107.89-5L107.89-5Q107.89-4.65 108.64-3.95 109.39-3.25 110.84-3.25L110.84-3.25ZM114.34 0.2L114.34 0.2Q113.89 0.2 112.86 0.23 111.84 0.25 110.91 0.3 109.99 0.35 109.79 0.45L109.79 0.45Q108.99 0.95 107.94 1.85 106.89 2.75 106.89 3.7L106.89 3.7Q106.89 6.05 108.59 7.63 110.29 9.2 113.39 9.2L113.39 9.2Q115.09 9.2 116.79 8.45 118.49 7.7 119.64 6.5 120.79 5.3 120.79 3.95L120.79 3.95Q120.79 3.25 120.14 2.38 119.49 1.5 118.09 0.85 116.69 0.2 114.34 0.2ZM112.39-19.95L112.39-19.95Q110.99-19.95 110.04-19.1 109.09-18.25 108.59-16.95 108.09-15.65 108.09-14.25L108.09-14.25Q108.09-12.75 108.64-11.35 109.19-9.95 110.24-9.05 111.29-8.15 112.79-8.15L112.79-8.15Q114.14-8.15 115.06-8.97 115.99-9.8 116.46-11.08 116.94-12.35 116.94-13.7L116.94-13.7Q116.94-15.25 116.44-16.68 115.94-18.1 114.94-19.03 113.94-19.95 112.39-19.95ZM137.04-21.45L137.04-21.45Q140.29-21.45 142.61-20.05 144.94-18.65 146.21-16.25 147.49-13.85 147.49-10.8L147.49-10.8Q147.49-7.65 146.14-5.13 144.79-2.6 142.44-1.13 140.09 0.35 137.14 0.35L137.14 0.35Q133.94 0.35 131.56-1.07 129.19-2.5 127.91-4.93 126.64-7.35 126.64-10.4L126.64-10.4Q126.64-13.55 128.01-16.05 129.39-18.55 131.74-20 134.09-21.45 137.04-21.45ZM136.49-19.8L136.49-19.8Q134.44-19.8 133.19-18.57 131.94-17.35 131.39-15.43 130.84-13.5 130.84-11.4L130.84-11.4Q130.84-9.05 131.61-6.7 132.39-4.35 133.91-2.8 135.44-1.25 137.64-1.25L137.64-1.25Q139.74-1.25 140.96-2.48 142.19-3.7 142.74-5.65 143.29-7.6 143.29-9.65L143.29-9.65Q143.29-12.05 142.49-14.38 141.69-16.7 140.19-18.25 138.69-19.8 136.49-19.8Z" opacity="1" transform="matrix(1,0,0,1,0,0)" fill="#ffffff" class="wordmark-text-0" data-fill-palette-color="primary" id="text-0"></path></svg></g></svg></g></svg></g></svg></g><g transform="matrix(1,0,0,1,90.5157408,0)"><svg viewBox="0 0 214.48851839999998 214.48851839999998" height="214.48851839999998" width="214.48851839999998"><g><svg></svg></g><g id="icon-0"><svg viewBox="0 0 214.48851839999998 214.48851839999998" height="214.48851839999998" width="214.48851839999998"><g><rect width="195.02567136" height="195.02567136" x="9.731423519999993" y="9.731423519999993" fill="#e29578" data-fill-palette-color="accent"></rect><rect width="195.02567136" height="195.02567136" x="-5.329070518200751e-15" y="19.462847039999993" fill="#e29578" opacity="0.5" data-fill-palette-color="accent"></rect></g><g transform="matrix(1,0,0,1,40.043191163990286,27.80406719999999)"><svg viewBox="0 0 134.4021360720194 158.880384" height="158.880384" width="134.4021360720194"><g><svg xmlns="http://www.w3.org/2000/svg" xmlns:xlink="http://www.w3.org/1999/xlink" version="1.1" x="0" y="0" viewBox="8.916 2.3072639843766973 72.168 85.3117360156233" enable-background="new 0 0 90 90" xml:space="preserve" height="158.880384" width="134.4021360720194" class="icon-dxe-0" data-fill-palette-color="quaternary" id="dxe-0"><path d="M23.289 19.074A2.72 2.72 0 0 1 20.57 16.355V5.1A2.719 2.719 0 1 1 26.006 5.1V16.356A2.72 2.72 0 0 1 23.289 19.074" fill="#ffffff" data-fill-palette-color="quaternary"></path><path d="M56.504 19.074A2.72 2.72 0 0 1 53.787 16.355V5.1A2.718 2.718 0 1 1 59.223 5.1V16.356A2.72 2.72 0 0 1 56.504 19.074" fill="#ffffff" data-fill-palette-color="quaternary"></path><path d="M29.02 71.936H25.858V57.277H28.194C28.325 56.629 28.483 55.996 28.655 55.369H25.858V41.182H37.628A29 29 0 0 1 40.838 38.776V25.546H53.915V34.275A27 27 0 0 1 55.818 34.17V25.547H67.381V36.277A29 29 0 0 1 70.871 37.984V16.744C70.871 13.213 67.998 10.338 64.467 10.338H61.744V16.356A5.241 5.241 0 1 1 51.263 16.356V10.338H28.529V16.356A5.242 5.242 0 0 1 18.047 16.356V10.338H15.322A6.414 6.414 0 0 0 8.916 16.744V69.023A6.414 6.414 0 0 0 15.322 75.431H30.406A29 29 0 0 1 29.02 71.936M25.857 25.545H38.933V39.275H25.857zM23.951 71.936H15.322A2.916 2.916 0 0 1 12.41 69.024V57.277H23.951zM23.951 55.369H12.41V41.182H23.951zM23.951 39.275H12.41V25.545H23.951z" fill="#ffffff" data-fill-palette-color="quaternary"></path><path d="M56.504 87.619C42.951 87.619 31.926 76.592 31.926 63.037 31.926 49.484 42.951 38.461 56.504 38.461 70.059 38.461 81.084 49.484 81.084 63.037 81.084 76.592 70.059 87.619 56.504 87.619M56.504 44.121C46.072 44.121 37.586 52.605 37.586 63.037 37.586 73.471 46.072 81.957 56.504 81.957 66.938 81.957 75.422 73.471 75.422 63.037 75.422 52.605 66.938 44.121 56.504 44.121" fill="#ffffff" data-fill-palette-color="quaternary"></path><path d="M71.121 56.975C69.008 55.584 64.588 56.565 59.683 58.457L51.068 50.043 48.166 50.145 55.094 60.413C52.242 61.726 49.42 63.184 46.948 64.532L43.373 61.831 41.888 62 45.582 66.652 45.896 72.582 47.123 71.728 48.012 67.335C50.756 66.706 53.838 65.925 56.842 65.022L58.455 77.303 60.695 75.449 61.572 63.439C66.5 61.611 70.461 59.416 71.121 56.975" fill="#ffffff" data-fill-palette-color="quaternary"></path></svg></g></svg></g></svg></g></svg></g><g></g></svg></g><defs></defs></svg><rect width="271.3351891538767" height="247.2" fill="none" stroke="none" visibility="hidden"></rect></g></svg></g></svg>